<?xml version="1.0" encoding="utf-8"?>
<!-- Generator: Adobe Illustrator 27.5.0, SVG Export Plug-In . SVG Version: 6.00 Build 0)  -->
<svg version="1.1" xmlns="http://www.w3.org/2000/svg" xmlns:xlink="http://www.w3.org/1999/xlink" x="0px" y="0px"
	 viewBox="0 0 500 500" style="enable-background:new 0 0 500 500;" xml:space="preserve">
<g id="OBJECTS">
	<g>
		<g>
			<g>
				<defs>
					<path id="SVGID_1_" d="M470.269,232.275c-8.62-36.355-24.876-70.633-45.343-101.891
						c-10.645-16.257-22.598-31.922-37.692-44.161c-14.091-11.427-29.459-17.012-45.937-20.753
						c-4.496-6.768-11.486-12.513-18.073-16.22c-10.669-6.006-23.275-8.32-35.456-7.079c-7.795,0.794-15.702,3.149-21.56,8.352
						c-2.368,2.103-4.317,4.744-5.656,7.633c-9.115,0.734-18.171,2.148-27.092,4.406c-26.362,6.672-51.442,21.582-67.484,43.159
						c-9.697-3.872-19.832-6.873-30.347-6.729c-6.461,0.089-12.843,1.367-19.157,2.743c-8.075,1.76-16.416,3.834-22.824,9.053
						c-7.774,6.332-11.577,16.556-12.189,26.564c-0.612,10.008,1.606,19.956,4.02,29.688c2.026,8.166,4.396,16.638,9.519,23.188
						c-7.454,2.791-14.819,5.783-21.43,9.937c-20.91,13.139-32.67,36.911-39.897,60.525
						c-13.212,43.172-13.399,93.733,14.037,129.589c20.083,26.246,51.841,40.787,83.412,50.556
						c83.379,25.798,174.849,24.713,257.592-3.056c18.252-6.125,36.605-13.848,50.192-27.488
						c12.658-12.708,20.214-29.614,25.745-46.677C478.457,321.026,480.608,275.883,470.269,232.275z"/>
				</defs>
				<clipPath id="SVGID_00000145041390972713227170000002784086021051958428_">
					<use xlink:href="#SVGID_1_"  style="overflow:visible;"/>
				</clipPath>
				<path style="clip-path:url(#SVGID_00000145041390972713227170000002784086021051958428_);fill:#F1D49B;" d="M335.635,64.252
					c-5.093-1.027-10.287-1.924-15.579-2.804c-28.594-4.756-58.278-6.055-86.595,1.112c-33.304,8.428-64.575,29.994-78.141,61.555
					c-6.308,14.676-8.928,31.423-19.324,43.552c-15.406,17.975-42.38,19.901-62.425,32.496
					c-20.91,13.139-32.67,36.911-39.897,60.525c-13.212,43.172-13.399,93.733,14.037,129.589
					c20.083,26.246,51.841,40.787,83.412,50.556c83.379,25.798,174.849,24.713,257.592-3.056
					c18.252-6.125,36.605-13.848,50.192-27.488c12.658-12.708,20.213-29.614,25.745-46.677
					c13.806-42.587,15.957-87.73,5.618-131.338c-8.62-36.355-24.876-70.633-45.343-101.891
					c-10.645-16.257-22.598-31.922-37.692-44.161C371.54,73.496,354.267,68.008,335.635,64.252z"/>
				<g style="clip-path:url(#SVGID_00000145041390972713227170000002784086021051958428_);">
					<g>
						<rect x="105.068" y="262.915" style="fill:#F2D39C;" width="16.782" height="80.651"/>
						<g>
							<rect x="251.007" y="295.093" style="fill:#F2D39C;" width="12.348" height="11.501"/>
							<rect x="246.77" y="306.594" style="fill:#FFEDCC;" width="20.822" height="36.973"/>
							<rect x="246.77" y="319.262" style="fill:#E2C086;" width="20.822" height="11.636"/>
						</g>
						<g>
							<rect x="275.709" y="307.493" style="fill:#F2D39C;" width="9.189" height="8.559"/>
							<rect x="272.556" y="316.052" style="fill:#FFEDCC;" width="15.496" height="27.515"/>
						</g>
						<g>
							<rect x="224.443" y="310.703" style="fill:#F2D39C;" width="9.189" height="8.559"/>
							<rect x="221.289" y="319.262" style="fill:#FFEDCC;" width="15.496" height="27.515"/>
						</g>
						<rect x="31.936" y="343.567" style="fill:#E2C086;" width="267.132" height="36.187"/>
						<rect x="42.843" y="315.915" style="fill:#FFEDCC;" width="141.231" height="27.651"/>
						<rect x="31.936" y="379.754" style="fill:#E2C086;" width="19.081" height="125.982"/>
						<rect x="278.488" y="379.754" style="fill:#E2C086;" width="20.58" height="125.982"/>
					</g>
					<g>
						<rect x="159.541" y="124.388" style="fill:#FFEDCC;" width="99.39" height="76.267"/>
						
							<rect x="182.31" y="124.036" transform="matrix(-1.836970e-16 1 -1 -1.836970e-16 371.7578 -46.7136)" style="fill:#E2C086;" width="53.851" height="76.973"/>
					</g>
					<g>
						
							<rect x="380.531" y="151.224" transform="matrix(6.123234e-17 -1 1 6.123234e-17 240.8682 619.5837)" style="fill:#FFEDCC;" width="99.39" height="76.267"/>
						<rect x="403.301" y="150.871" style="fill:#E2C086;" width="53.851" height="76.973"/>
					</g>
					<g>
						<g>
							<path style="fill:#FFEDCC;" d="M518.662,337.776c-3.307-3.122-8.774-3.643-12.61-1.202
								c-6.262,3.985-7.427,14.002-14.447,16.409c-3.241,1.111-6.918,0.193-10.146,1.339c-5.743,2.039-7.385,9.177-8.619,15.145
								c-1.233,5.968-3.094,12.521-9.182,12.785c-3.269-2.414-2.127-7.615,0.055-11.043c2.182-3.428,5.211-6.892,4.754-10.93
								c-0.555-4.906-6.199-8.662-5.292-13.515c0.879-4.705,7.252-6.401,8.985-10.863c1.838-4.733-2.32-9.485-3.689-14.374
								c-2.319-8.284,3.606-16.94,2.345-25.45c-1.17-7.899-9.381-14.041-17.289-12.933c-7.908,1.108-14.115,9.269-13.07,17.186
								c0.994,7.53,7.491,14.24,5.928,21.673c-1.116,5.308-6.222,9.468-6.112,14.892c0.116,5.741,5.925,9.626,8.047,14.962
								c2.229,5.6,0.131,11.853-1.106,17.752c-1.237,5.899-1.049,13.172,3.946,16.545c1.654,1.117,2.345,4.995,3.681,6.477
								c10.782,0.341,21.327-7.245,24.43-17.577c1.217-4.051,1.574-8.738,4.719-11.568c2.2-1.98,5.285-2.562,8.202-3.065
								c4.186-0.722,8.373-1.444,12.559-2.166c6.032-1.04,12.851-2.614,15.836-7.957
								C522.801,346.326,521.967,340.897,518.662,337.776z"/>
							<path style="fill:#FFEDCC;" d="M447.161,387.411c-2.797-2.957-4.072-6.237-4.141-10.371
								c-0.083-4.887,0.417-10.46-3.01-13.945c-2.281-2.32-5.811-3.073-8.071-5.414c-3.961-4.101-2.372-10.736-2.762-16.425
								c-0.692-10.076-9.418-18.989-19.477-19.895c-2.565-0.231-5.275,0.038-7.461,1.4c-2.187,1.362-3.702,4.003-3.175,6.524
								c1.451,6.943,14.168,5.284,16.383,12.022c1.445,4.395-2.938,8.82-2.453,13.421c0.387,3.667,3.711,6.271,6.959,8.017
								c3.248,1.746,6.882,3.243,8.938,6.305c1.825,2.718,2.051,6.161,2.912,9.32c2.316,8.495,9.941,15.29,18.645,16.616
								c1.123,0.171,2.35,0.238,3.312-0.367C457.856,392.044,448.44,388.764,447.161,387.411z"/>
						</g>
						<polygon style="fill:#E2C086;" points="482.787,466.986 491.383,377.099 421.635,377.099 430.231,466.986 						"/>
					</g>
				</g>
				<g style="clip-path:url(#SVGID_00000145041390972713227170000002784086021051958428_);">
					<g>
						<g>
							<g>
								<g>
									<path style="fill:#B77158;" d="M313.177,247.629c-1.11-1.605-29.984,10.641-29.984,10.641
										c2.192-4.469,2.805-9.712,1.697-14.573c-0.011-0.045-0.023-0.09-0.034-0.135c-0.119-0.435-0.326-0.886-0.744-1
										c-0.202-0.054-0.415-0.016-0.615,0.038c-1.714,0.465-2.975,1.963-3.727,3.577c-0.746,1.609-1.078,3.382-1.638,5.059
										c-1.062,3.231-3.28,5.872-5.475,8.466c-3.704,4.396-0.721,14.361-0.721,14.361s-0.697,0.457-1.64,1.096l7.754,13.836
										l6.05-3.455l4.416,0.469c3.199-0.086,29.564-14.491,29.137-16.456c-0.112-0.532-0.29-1.099-0.485-1.642
										c-0.305-0.84-0.65-1.61-0.881-2.122c-0.177-0.376-0.298-0.6-0.298-0.6s0.127-1.112,0.095-2.407
										c0.003-0.768-0.058-1.6-0.211-2.307c-0.158-0.766-0.451-1.38-0.913-1.61c-0.463-0.23-2.342,0.086-4.778,0.645
										c-6.016,1.366-15.416,4.145-15.194,3.452c0.321-0.96,18.907-12.068,18.907-12.068s0.152-0.66-0.008-1.543
										C313.793,248.83,313.588,248.223,313.177,247.629z"/>
									<g>
										<g>
											<path style="fill:#8E503D;" d="M316.088,262.783c-0.517,0.223-1.047,0.445-1.59,0.651c-3.17,1.22-6.178,1.95-8.374,2.357
												c-2.061,0.379-3.414,0.5-3.574,0.511c0.14-0.076,1.339-0.713,3.218-1.604c2.01-0.954,4.782-2.209,7.901-3.407
												c0.753-0.289,1.489-0.558,2.204-0.815C316.029,261.18,316.086,262.012,316.088,262.783z"/>
										</g>
										<g>
											<path style="fill:#8E503D;" d="M317.164,267.91c-5.007,2.04-9.366,2.807-9.641,2.855
												c0.227-0.171,3.814-2.777,8.769-4.975C316.522,266.301,316.863,267.073,317.164,267.91z"/>
										</g>
									</g>
									<path style="fill:#B77158;" d="M272.16,278.497c0.074-0.051,0.169-0.102,0.243-0.153c0.402-0.266,0.815-0.542,1.186-0.861
										c0.287-0.278,0.543-0.567,0.737-0.92c0.518-0.934,0.421-2.077,0.28-3.136c-0.426-3.441-1.165-6.971-0.305-10.339
										c1.016-3.973,4.102-7.064,5.837-10.785c1.258-2.702,1.872-5.812,3.918-7.978c0.245-0.258,0.521-0.504,0.798-0.772
										c-0.119-0.42-0.321-0.885-0.738-0.996c-0.209-0.045-0.418-0.007-0.618,0.042c-1.714,0.465-2.984,1.962-3.722,3.584
										c-0.748,1.611-1.08,3.375-1.641,5.051c-1.068,3.239-3.277,5.874-5.465,8.466c-3.714,4.401-0.743,14.363-0.743,14.363
										s-0.738,0.344-1.622,0.665c-0.063,0.02-0.137,0.05-0.211,0.08l-0.653,0.262L272.16,278.497z"/>
								</g>
								<g>
									<path style="fill:#B77158;" d="M280.84,279.274c0,0,0.203-0.104,0.556-0.283c0.361-0.185,0.853-0.505,1.415-0.971
										c1.124-0.917,2.471-2.562,3.148-4.738c0.67-2.179,0.487-4.297,0.078-5.689c-0.202-0.702-0.427-1.243-0.62-1.6
										c-0.189-0.347-0.299-0.547-0.299-0.547s-0.013,0.227-0.036,0.62c-0.009,0.39-0.06,0.954-0.137,1.622
										c-0.15,1.346-0.512,3.094-1.08,4.946c-0.578,1.849-1.266,3.497-1.902,4.692c-0.314,0.595-0.59,1.089-0.803,1.417
										C280.957,279.079,280.84,279.274,280.84,279.274z"/>
								</g>
							</g>
						</g>
						<path style="fill:#1D1E1E;" d="M223.535,284.792c-0.921,5.526-3.82,10.898-8.579,13.866c-4.383,2.746-9.79,3.189-14.957,3.496
							c-29.881,1.74-60.171-0.512-90.001-2.797c-13.184-1.006-25.497-9.551-31.092-21.524c-5.577-11.973-4.179-26.896,3.513-37.641
							c3.343-4.673,7.999-9.108,8.204-14.855c0.136-3.599-1.552-6.993-2.524-10.472c-0.426-1.467-0.717-2.951-0.699-4.485
							c0.136-9.346,11.239-14.446,15.214-22.922c4.383-9.397-0.819-20.176-2.575-30.392c-1.91-11.001,0.477-22.684,6.532-32.081
							c6.055-9.38,15.725-16.373,26.521-19.187c11.171-2.899,24.065,0.614,33.428,7.334c4.076,2.951,7.692,6.515,10.694,10.557
							c3.906,5.202,6.771,11.154,8.374,17.465c3.855,15.333,0.222,31.757,3.786,47.141c1.484,6.413,4.179,12.45,6.856,18.454
							c5.697,12.775,11.393,25.532,17.089,38.306c3.36,7.538,6.737,15.128,8.852,23.11
							C223.62,273.587,224.456,279.266,223.535,284.792z"/>
						<g>
							<path style="fill:#935441;" d="M151.248,383.208h45.24c5.959,34.774,22.182,133.642,15.358,141.153
								c-8.292,9.126-90.183,93.102-90.183,93.102l-18.595-15.064l65.987-85.724L151.248,383.208z"/>
							<path style="fill:#B77158;" d="M179.651,634.915l-15.806,1.189l-5.828,0.302l-18.869-142.048
								c0,0-27.164-71.923-33.486-93.133c0.573-7.675,1.943-17.053,3.503-26.097l14.983,1.831l49.154,6.003
								c4.203,33.263,12.34,96.111,13.232,101.062C189.194,499.358,179.651,634.915,179.651,634.915z"/>
							<path style="fill:#B77158;" d="M168.412,498.483c0.776,1.921,1.973,3.777,3.815,4.878c1.842,1.101,4.425,1.267,6.135-0.008
								c0.734-0.547,1.257-1.305,1.706-2.079c2.798-4.819,3.119-10.849,0.847-15.908c-1.921-4.278-7.377-6.819-10.802-2.779
								C166.61,486.72,166.508,493.772,168.412,498.483z"/>
							<path style="fill:#C86B2A;" d="M109.577,446.094c0,0,57.819,10.005,107.097-2.223l-15.922-89.534h-87.65L109.577,446.094z"/>
							<path style="fill:#CC836D;" d="M163.845,636.103l-5.828,0.302l-18.869-142.048c0,0-27.164-71.923-33.486-93.133
								c0.573-7.675,1.943-17.053,3.503-26.097l14.983,1.831c-0.239,11.48-0.589,33.311,0.43,36.957
								c1.401,4.952,26.894,81.86,26.894,81.86L163.845,636.103z"/>
							<g>
								<path style="fill:#B77158;" d="M151.357,673.32l10.18,1.185l1.052-15.745c0,0,7.831,16.878,10.983,17.837
									c3.151,0.959,33.053,0.742,44.129-2.221c11.307-3.033,10.716-6.353,10.716-6.353c-1.23-2.332-10.134-7.973-18.543-10.385
									c-1.701-0.491-3.956-1.713-6.474-3.364c-9.866-6.453-23.747-19.36-23.747-19.36l-21.773,0.704
									C149.215,647.116,151.357,673.32,151.357,673.32z"/>
								<path style="fill:#B77158;" d="M151.357,673.32l10.18,1.185l1.052-15.745c0,0,7.831,16.878,10.983,17.837
									c3.151,0.959,33.053,0.742,44.129-2.221c11.307-3.033,10.716-6.353,10.716-6.353c-1.23-2.332-10.134-7.973-18.543-10.385
									c-1.701-0.491-3.956-1.713-6.474-3.364c-2.757,3.506-6.403,8.023-7.391,8.835c-1.641,1.364-17.198-9.32-19.98-10.916
									c-2.782-1.611-12.247-16.828-12.247-16.828l-5.903,0.253C149.215,647.116,151.357,673.32,151.357,673.32z"/>
								<path style="fill:#FFFFFF;" d="M151.357,673.321l10.179,1.179l1.052-15.74c0,0,7.831,16.878,10.983,17.837
									c3.151,0.959,33.053,0.742,44.129-2.221c11.307-3.033,10.716-6.353,10.716-6.353c-1.23-2.332-10.134-7.973-18.543-10.385
									c0,0-3.535,11.332-11.585,11.358c-8.065,0.026-28.8-13.97-31.881-20.969c-3.097-6.999-8.529-12.409-8.529-12.409
									C149.215,647.116,151.357,673.321,151.357,673.321z"/>
							</g>
							<g>
								<path style="fill:#935441;" d="M77.568,628.801l7.439,6.428l9.323-11.927c0,0-2.885,17.615-0.901,20.075
									c1.983,2.46,25.829,18.408,36.215,22.028c10.608,3.689,11.928,0.736,11.928,0.736c0.281-2.513-3.743-11.79-9.116-18.237
									c-1.085-1.307-2.215-3.492-3.324-6.16c-4.35-10.439-8.407-28.165-8.407-28.165l-17.657-11.18
									C89.996,606.852,77.568,628.801,77.568,628.801z"/>
								<path style="fill:#FFFFFF;" d="M77.568,628.802l7.442,6.423l9.32-11.923c0,0-2.885,17.615-0.901,20.075
									c1.983,2.46,25.829,18.408,36.215,22.028c10.608,3.689,11.928,0.736,11.928,0.736c0.281-2.513-3.743-11.79-9.116-18.237
									c0,0-8.914,7.087-15.316,2.768c-6.414-4.327-15.323-26.612-13.994-33.827c1.316-7.223-0.079-14.445-0.079-14.445
									C89.996,606.852,77.568,628.802,77.568,628.802z"/>
							</g>
						</g>
						<path style="fill:#48311F;" d="M142.007,201.584c0,0-27.516,6.352-28.627,7.597c-1.112,1.245,0,108.518,0,108.518
							l-14.729,60.584c0,0,63.009,10.005,77.082,10.561c14.072,0.556,30.021-11.116,30.021-11.116l-15.393-71.986
							c0,0,8.893-40.29,8.893-53.63c0-13.34-19.201-48.293-19.201-48.293l-15.298-2.358L142.007,201.584z"/>
						<g>
							<g>
								<g>
									<path style="fill:#B77158;" d="M138.68,202.077l27.145-0.779c-0.733-0.629-5.43-2.759-5.624-5.039
										c-0.446-5.257,0.145-12.803,0.145-12.803l-18.416-2.84c0,0,0.179,5.09,0.125,10.521
										C142.005,196.638,139.633,201.065,138.68,202.077z"/>
									<path style="fill:#8E503D;" d="M142.058,191.129c5.407,2.697,12.022,5.851,14.054,6.158
										c1.658,0.246,3.058-0.334,4.084-1.027c-0.437-5.262,0.156-12.8,0.156-12.8l-18.417-2.841
										C141.935,180.618,142.107,185.715,142.058,191.129z"/>
									<g>
										<path style="fill:#B77158;" d="M123.6,133.726c7.547-12.603,22.898-18.748,36.722-13.78
											c3.178,1.142,5.819,2.614,7.227,4.504c5.636,7.562,17.049,37.07,13.365,52.908c-3.684,15.838-14.021,15.625-17.76,15.232
											c-3.739-0.393-21.689-4.34-26.531-9.087c-4.842-4.747-18.188-31.35-17.666-39.005
											C119.132,141.942,121.081,137.933,123.6,133.726z"/>
										<path style="fill:#B77158;" d="M122.064,131.728c7.547-12.603,22.898-18.748,36.722-13.78
											c3.178,1.142,5.818,2.614,7.227,4.504c5.636,7.562,17.049,37.07,13.365,52.908c-3.684,15.838-14.021,15.625-17.761,15.232
											c-3.739-0.393-21.689-4.34-26.531-9.087c-4.842-4.747-18.189-31.351-17.666-39.005
											C117.596,139.944,119.545,135.935,122.064,131.728z"/>
										<path style="fill:#B77158;" d="M132.258,168.594c-0.968-0.263-6.538-5.322-9.03-1.161
											c-2.492,4.16-2.246,10.23,1.341,12.999c3.274,2.527,7.657,5.097,12.055,3.071L132.258,168.594z"/>
										<path style="fill:#CC836D;" d="M124.161,171.931c-0.037,0.823,0.243,1.619,0.637,2.348
											c1.676,3.099,5.263,5.014,8.683,6.775c-1.205-1.426-1.886-3.169-2.045-4.965c-0.055-0.625-0.05-1.258-0.164-1.873
											C130.813,171.737,124.377,167.064,124.161,171.931z"/>
										<g>
											<path style="fill:#8E503D;" d="M135.153,181.703c0,0-0.065-0.024-0.188-0.069c-0.121-0.048-0.312-0.106-0.537-0.21
												c-0.452-0.205-1.089-0.551-1.736-1.121c-0.645-0.569-1.285-1.371-1.713-2.386c-0.405-1.015-0.603-2.251-0.301-3.539
												c0.027-0.161,0.079-0.319,0.131-0.475l0.039-0.117c0.009-0.029,0.004-0.011,0.005-0.014l0,0.004l0.003-0.002l0,0
												c0,0,0.004,0.004-0.011-0.016l-0.067-0.086l-0.137-0.168c-0.093-0.11-0.184-0.221-0.278-0.327
												c-0.374-0.429-0.765-0.824-1.158-1.185c-0.394-0.361-0.791-0.687-1.179-0.98c-0.39-0.29-0.763-0.561-1.118-0.746
												c-0.355-0.188-0.723-0.282-1.048-0.264c-0.324,0.023-0.608,0.158-0.789,0.303c-0.183,0.148-0.269,0.309-0.295,0.421
												c-0.03,0.113-0.015,0.176-0.015,0.176s-0.032-0.057-0.031-0.178c-0.002-0.119,0.047-0.309,0.218-0.508
												c0.172-0.195,0.459-0.403,0.876-0.496c0.417-0.085,0.898-0.024,1.347,0.139c0.454,0.164,0.877,0.397,1.326,0.656
												c0.447,0.263,0.907,0.566,1.361,0.916c0.453,0.35,0.902,0.745,1.325,1.186c0.107,0.109,0.209,0.223,0.313,0.338
												l0.152,0.175l0.205,0.25l0.143,0.176c-0.014,0.07-0.043,0.144-0.064,0.215l-0.096,0.309
												c-0.044,0.135-0.089,0.272-0.112,0.412c-0.263,1.117-0.157,2.211,0.117,3.158c0.295,0.944,0.767,1.743,1.271,2.35
												c0.505,0.608,1.03,1.032,1.415,1.303c0.191,0.138,0.358,0.225,0.463,0.296
												C135.096,181.667,135.153,181.703,135.153,181.703z"/>
										</g>
										<g>
											<g>
												<path style="fill:#B77158;" d="M160.967,164.288c-0.786,0.017-1.62-0.092-2.32,0.266
													c1.372,1.381,3.304,2.189,5.251,2.197c0.15,0.001,0.305-0.004,0.443-0.063c0.169-0.073,0.294-0.218,0.408-0.362
													c0.722-0.911,1.261-1.967,1.577-3.086c0.064-0.227,0.119-0.463,0.087-0.696c-0.108-0.773-0.534-0.428-0.891-0.099
													c-0.413,0.382-0.876,0.711-1.369,0.981C163.179,163.958,162.078,164.264,160.967,164.288z"/>
												<path style="fill:#8E503D;" d="M163.891,166.286c0.281-0.553,0.639-1.068,0.935-1.617
													c0.365-0.676,0.678-1.381,0.905-2.116c-2.916-0.691-3.826-3.102-4.774-5.867c-0.428-1.248-0.556-2.593-0.377-3.899
													c0.094-0.686,0.272-1.361,0.53-2.004c0.131-0.327,0.282-0.646,0.452-0.954c0.166-0.301,0.375-0.514,0.624-0.751
													c-0.078,0.217-0.102,0.443-0.165,0.659c-0.165,0.565-0.358,1.106-0.463,1.689c-0.105,0.583-0.159,1.174-0.164,1.766
													c-0.01,1.184,0.175,2.373,0.566,3.491c0.383,1.097,0.967,2.129,1.756,2.985c0.9,0.977,2.146,1.809,3.457,2.074
													c0.012,0.002-0.859,2.443-0.956,2.651c-0.25,0.54-0.55,1.057-0.903,1.536c-0.346,0.469-0.74,1.02-1.311,1.216
													c-0.179,0.061-0.374,0.092-0.557,0.046c0.072-0.101,0.134-0.209,0.185-0.322c0.022-0.049,0.043-0.1,0.063-0.15
													C163.752,166.572,163.819,166.428,163.891,166.286z"/>
												<g>
													<path style="fill:#8E503D;" d="M154.568,179.34c4.158-4.296,9.901-4.475,15.297-3.199
														c-2.795-1.621-5.738-2.397-8.68-1.509C158.243,175.519,156.376,176.331,154.568,179.34z"/>
												</g>
											</g>
											<path style="fill:#444444;" d="M172.229,141.498c0,0-3.988-3.996-6.793-4.093c-2.805-0.096-3.97,2.336-2.944,2.983
												C163.518,141.035,172.229,141.498,172.229,141.498z"/>
											<path style="fill:#444444;" d="M134.253,151.241c0,0,4.973-6.992,9.005-8.788c4.032-1.797,6.192,0.299,4.838,1.66
												C146.742,145.472,134.253,151.241,134.253,151.241z"/>
											<g>
												<path style="fill:#CC836D;" d="M149.67,167.977c0.067,1.339-2.745,2.567-6.281,2.744
													c-3.536,0.177-6.456-0.765-6.523-2.104c-0.067-1.339,2.745-2.567,6.281-2.744
													C146.682,165.697,149.603,166.639,149.67,167.977z"/>
												<path style="fill:#CC836D;" d="M182.084,155.106c0.592,0.825-0.944,2.939-3.43,4.721
													c-2.486,1.782-4.981,2.558-5.572,1.732c-0.592-0.825,0.944-2.939,3.43-4.721
													C178.998,155.057,181.493,154.281,182.084,155.106z"/>
											</g>
											<g>
												<path style="fill:#1D1E1E;" d="M141.882,152.688c0.808,0.902,2.497,1.207,3.637,1.311
													c0.279-0.752,0.754-1.316,1.406-1.563c1.664-0.629,3.831,1.027,4.841,3.698c1.01,2.671,0.481,5.347-1.183,5.976
													c-1.663,0.629-3.831-1.026-4.841-3.698c-0.313-0.827-0.477-1.654-0.507-2.422
													C143.543,155.353,141.882,152.688,141.882,152.688z"/>
												<path style="fill:#FFFFFF;" d="M148.816,157.64c0,0-1.471,1.21-3.274,1.195c-1.802-0.015-3.254-1.249-3.254-1.249
													s1.471-1.209,3.274-1.194C147.365,156.406,148.816,157.64,148.816,157.64z"/>
											</g>
											<g>
												<path style="fill:#1D1E1E;" d="M175.38,145.592c-0.112,0.973-1.083,1.965-1.787,2.567
													c-0.536-0.366-1.114-0.516-1.66-0.374c-1.393,0.363-2.049,2.47-1.466,4.706c0.583,2.236,2.184,3.754,3.577,3.391
													c1.393-0.363,2.049-2.47,1.465-4.706c-0.181-0.692-0.459-1.316-0.798-1.836
													C175.531,148.129,175.38,145.592,175.38,145.592z"/>
												<path style="fill:#FFFFFF;" d="M173.12,152.105c0,0,1.537,0.11,2.72-0.743c1.183-0.853,1.563-2.346,1.563-2.346
													s-1.537-0.11-2.72,0.743C173.5,150.612,173.12,152.105,173.12,152.105z"/>
											</g>
										</g>
									</g>
								</g>
							</g>
							<path style="fill:#1D1E1E;" d="M175.87,132.311c-9.579,3.581-20.638,2.984-29.776-1.606c2.12,2.851,5.166,5.44,8.432,6.837
								c-7.063,2.461-15.018,2.26-21.949-0.553c1.13,6.219-0.196,12.786-3.744,18.017c0.599,4.43,1.742,8.923,2.342,13.354
								c-2.668-1.537-5.851-1.798-8.806-0.936c-7.527-7.937-11.178-19.583-8.706-30.238c2.472-10.656,10.572-19.839,20.844-23.6
								c10.272-3.761,22.399-1.974,31.134,4.61C170.5,121.858,173.675,126.635,175.87,132.311z"/>
							<g>
								<path style="fill:#444444;" d="M157.753,125.752c-7.248-1.023-14.497-2.047-21.745-3.087
									c0.034,2.473,0.051,4.946,0.068,7.419c-4.69-1.057-9.398-2.115-14.105-3.172c2.439,5.441,0.58,11.82-2.166,17.106
									c-2.729,5.287-6.362,10.25-7.709,16.049c-2.746,11.939,4.724,25.344-0.785,36.293c-3.24,6.413-10.062,10.028-16.254,13.678
									c-2.388,1.416-4.809,3.002-6.958,4.827c-0.426-1.467-0.717-2.951-0.699-4.485c0.102-6.549,5.594-11.018,10.233-16.032
									c1.979-2.132,3.786-4.366,4.98-6.89c4.383-9.397-0.819-20.176-2.575-30.392c-1.91-11.001,0.477-22.684,6.532-32.081
									c6.055-9.38,15.725-16.373,26.521-19.187c10.745-2.78,23.076,0.358,32.337,6.583c0.375,0.239,0.734,0.495,1.092,0.751
									c4.076,2.951,7.692,6.515,10.694,10.557c-7.266-1.262-14.514-2.524-21.762-3.786
									C156.218,121.863,156.985,123.808,157.753,125.752z"/>
								<path style="fill:#595959;" d="M147.281,116.849c-6.652-0.58-13.286-1.177-19.938-1.774c0.341,2.03,0.699,4.042,1.04,6.072
									c-3.564-0.682-7.112-1.348-10.677-2.03c1.501,5.321-0.733,10.984-3.598,15.708c-2.865,4.724-6.447,9.159-8.033,14.446
									c-1.773,5.901-0.887,12.229-0.102,18.335c0.802,6.106,1.449,12.502-0.717,18.266c-1.364,3.616-4.213,6.856-7.623,8.476
									c1.979-2.132,3.786-4.366,4.98-6.89c4.383-9.397-0.819-20.176-2.575-30.392c-1.91-11.001,0.477-22.684,6.532-32.081
									c6.055-9.38,15.725-16.373,26.521-19.187c10.745-2.78,23.076,0.358,32.337,6.583c-6.737-0.699-13.473-1.398-20.21-2.098
									C145.916,112.466,146.599,114.666,147.281,116.849z"/>
							</g>
							<g>
								<g>
									<path style="fill:#FFFFFF;" d="M180.644,159.112c0,0,0.275,1.172,0.652,2.974c0.055,0.146,0.076,0.3,0.118,0.467
										c0.327,1.531,0.715,3.454,1.061,5.441c0.041,0.238,0.077,0.459,0.118,0.697c0.31,1.766,0.574,3.579,0.734,5.205
										c0.043,0.326,0.065,0.64,0.087,0.953c0.093,1.058,0.126,2.025,0.076,2.817c-0.298,5.447-10.405,15.91-12.837,16.681
										c-2.414,0.767-30.194-4.404-32.493-6.84c-2.322-2.448-8.239-18.05-8.239-18.05S162.21,156.391,180.644,159.112z"/>
									<path style="fill:#FFFFFF;" d="M120.945,166.444c0,0,2.548-1.203,3.528-1.212c0.981-0.008,9.516,2.727,9.516,2.727
										l-2.742,3.28C131.247,171.239,124.861,166.689,120.945,166.444z"/>
									<path style="fill:#FFFFFF;" d="M126.926,182.662c0,0,2.211,2.734,3.352,3.22c1.141,0.487,8.505,0.757,8.505,0.757
										l-1.26-2.946l-1.867-0.288C135.657,183.406,131.04,184.998,126.926,182.662z"/>
								</g>
								<g>
									<path style="fill:#F4E8D9;" d="M181.296,162.086c0.055,0.146,0.076,0.3,0.118,0.467c-4.14,0.385-9.493,0.898-11.428,1.208
										c-3.343,0.504-34.837,8.123-34.837,8.123s29.692-9.755,35.781-9.779C174.018,162.109,178.057,162.086,181.296,162.086z"/>
									<path style="fill:#F4E8D9;" d="M182.476,167.995c0.041,0.238,0.077,0.459,0.118,0.697c-3.618,0.325-7.502,0.735-9.072,0.97
										c-3.343,0.504-34.836,8.124-34.836,8.124s29.692-9.755,35.785-9.763C176.848,168.027,179.774,168,182.476,167.995z"/>
									<path style="fill:#F4E8D9;" d="M183.327,173.897c0.043,0.326,0.065,0.64,0.087,0.953c-2.693,0.27-5.16,0.518-6.357,0.712
										c-3.342,0.504-34.837,8.123-34.837,8.123s29.678-9.733,35.786-9.763C179.612,173.909,181.452,173.908,183.327,173.897z"/>
								</g>
							</g>
						</g>
						<path style="fill:#FFFFFF;" d="M174.803,429.552l-16.529,76.207H79.758c0,0-0.39-108.58,29.815-184.725l-6.503-111.886
							c0,0,10.822-2.745,22.034-4.834c5.006-0.951,10.089-1.747,14.315-2.121l0.187,0.639l18.447,65.12
							C159.786,276.841,174.803,429.552,174.803,429.552z"/>
						<path style="fill:#FFFFFF;" d="M283.632,293.005c0,0-55.748,29.597-60.192,28.786c-2.323-0.39-5.692-2.23-9.372-4.647
							c-5.333-3.509-11.524-11.695-15.999-18.323c-3.649-5.38-6.175-9.746-6.175-9.746l-11.649-56.122l6.315-28.646
							c0,0,8.249,0.873,14.206,6.378c8.998,8.717,30.096,73.618,30.096,73.618l31.281-14.378l6.206-2.854L283.632,293.005z"/>
						<path style="fill:#FFFFFF;" d="M233.155,505.759h-34.088l-24.264-76.207l-16.529-160.165l15.859-66.477l12.756,1.544
							c0,0,17.372,40.154,18.868,47.109c1.497,6.94-10.042,65.588-10.042,65.588s15.765,37.238,17.777,52.801
							c0.671,5.13,3.041,21.66,5.91,41.511c1.934,13.364,4.086,28.21,6.113,42.119C229.615,481.62,233.155,505.759,233.155,505.759z
							"/>
						<path style="fill:#EFDAC5;" d="M195.714,225.289c0,0,9.098,25.23,9.098,27.88s-10.005,38.593-10.005,38.593
							s15.007-31.682,14.266-37.61C208.333,248.222,195.714,225.289,195.714,225.289z"/>
						<path style="fill:#EFDAC5;" d="M158.975,285.464c0,0-24.015-20.942-27.726-27.788c-3.711-6.861-0.78-18.713-0.78-18.713
							s-10.136-8.904-10.916-10.931c-0.764-2.012,5.349-23.048,5.551-23.718c0-0.016,0-0.016,0-0.016
							c6.456-3.337,14.315-2.105,14.315-2.105l0.187,0.639l18.447,65.12L158.975,285.464z"/>
						<path style="fill:#EFDAC5;" d="M174.134,202.907c0,0,6.109-1.433,12.754,1.543c0,0,2.084,26.818,1.806,28.625
							c-0.278,1.806-10.614,5.975-10.614,5.975s1.286,14.174,1.434,19.454c0.148,5.28-20.545,26.957-20.545,26.957l-0.914-17.508
							L174.134,202.907z"/>
						<path style="fill:#EFDAC5;" d="M158.969,285.462c0,0,11.025,81.832,12.68,89.666c1.655,7.834,3.15,54.431,3.15,54.431
							s2.047-44.062,0.005-54.431c-2.043-10.369-13.9-95.645-13.9-95.645L158.969,285.462z"/>
						<path style="fill:#EFDAC5;" d="M98.651,411.077l45.577,3.335c0,0-4.076,37.425-7.04,40.39
							c-2.964,2.964-21.862,10.375-23.715,10.375c-1.853,0-17.045-15.229-17.045-15.229L98.651,411.077z"/>
						<path style="fill:#EFDAC5;" d="M225.514,453.582c-4.975-1.559-14.923-5.006-16.436-8.046
							c-2.043-4.07-5.006-32.233-5.006-32.233l15.329-1.84C221.335,424.827,223.487,439.672,225.514,453.582z"/>
						<g>
							<g>
								<g>
									<polygon style="fill:#415F4B;" points="122.03,267.729 123.347,276.398 128.986,313.723 129.524,317.344 130.059,320.799 
										130.597,324.42 131.111,327.875 131.67,331.496 132.355,336.047 135.927,359.949 195.451,350.961 211.134,348.593 
										197.218,256.377 192.397,257.109 192.066,257.158 188.114,257.745 181.534,258.745 180.293,258.939 176.342,259.527 
										176.217,259.55 172.245,260.138 172.245,260.159 164.424,261.332 160.471,261.92 150.416,263.434 150.417,263.455 
										129.436,266.607 127.057,266.972 									"/>
									
										<rect x="188.402" y="257.035" transform="matrix(0.9888 -0.1493 0.1493 0.9888 -43.1298 32.71)" style="fill:#2D4935;" width="15.861" height="93.26"/>
									
										<rect x="135.014" y="276.291" transform="matrix(0.9888 -0.1493 0.1493 0.9888 -40.4181 26.2735)" style="fill:#FEF1E8;" width="39.611" height="12.203"/>
									
										<rect x="147.072" y="325.623" transform="matrix(0.9888 -0.1493 0.1493 0.9888 -47.0684 27.7941)" style="fill:#FEF1E8;" width="29.098" height="3.661"/>
									
										<rect x="148.137" y="332.676" transform="matrix(0.9888 -0.1493 0.1493 0.9888 -48.1094 28.032)" style="fill:#FEF1E8;" width="29.098" height="3.661"/>
									
										<rect x="149.202" y="339.73" transform="matrix(0.9888 -0.1493 0.1493 0.9888 -49.1504 28.27)" style="fill:#FEF1E8;" width="29.098" height="3.661"/>
								</g>
							</g>
							<polygon style="fill:#2D4935;" points="197.221,256.385 192.401,257.116 192.07,257.165 188.117,257.753 181.538,258.753 
								180.297,258.947 176.345,259.534 176.221,259.558 172.248,260.146 172.249,260.167 164.428,261.34 160.476,261.927 
								150.42,263.441 150.42,263.462 129.441,266.614 127.061,266.979 122.033,267.736 123.35,276.405 128.989,313.73 
								129.528,317.351 130.062,320.806 130.601,324.427 131.115,327.883 131.674,331.503 132.358,336.055 132.337,336.055 
								135.929,359.953 131.212,360.703 129.475,360.991 119.493,298.644 119.492,298.623 116.183,278.021 114.25,265.961 
								113.934,263.954 116.315,263.63 138.127,260.563 149.406,258.98 159.484,257.548 163.458,257.002 171.28,255.891 
								175.254,255.344 175.957,255.245 179.91,254.679 187.733,253.589 190.713,253.168 191.762,253.684 							"/>
							<polygon style="fill:#FEF1E8;" points="192.401,257.116 192.07,257.165 188.117,257.753 181.538,258.753 180.297,258.947 
								176.345,259.534 176.221,259.558 172.249,260.167 164.428,261.34 160.476,261.927 150.42,263.441 150.42,263.462 
								129.441,266.614 127.061,266.979 122.033,267.736 123.35,276.405 128.968,313.73 128.989,313.73 129.528,317.351 
								130.041,320.807 130.601,324.427 131.115,327.883 131.653,331.503 132.337,336.055 135.929,359.953 131.212,360.703 
								119.385,277.305 117.769,265.528 149.844,260.942 159.944,259.51 163.896,258.943 171.718,257.832 175.692,257.265 
								176.147,257.193 180.099,256.626 187.901,255.516 189.763,255.245 192.041,256.854 							"/>
						</g>
						<g>
							<g>
								<g>
									<g>
										<path style="fill:#B77158;" d="M201.183,295.551c-0.615-2.086-35.447,0.796-35.447,0.796
											c3.879-3.965,6.358-9.299,6.882-14.83c0.004-0.051,0.007-0.103,0.011-0.154c0.025-0.502-0.036-1.052-0.438-1.318
											c-0.195-0.127-0.434-0.162-0.664-0.175c-1.976-0.106-3.834,1.039-5.193,2.485c-1.351,1.443-2.321,3.203-3.499,4.782
											c-2.252,3.049-5.521,5.07-8.749,7.049c-5.454,3.36-5.775,14.946-5.775,14.946s-0.897,0.24-2.119,0.588l3.377,17.348
											l7.609-1.545l4.51,2.038c3.415,1.025,36.346-5.017,36.58-7.247c0.067-0.602,0.076-1.264,0.059-1.907
											c-0.03-0.996-0.125-1.931-0.192-2.553c-0.057-0.46-0.106-0.739-0.106-0.739s0.522-1.133,0.941-2.514
											c0.271-0.812,0.497-1.714,0.582-2.515c0.1-0.866,0.004-1.618-0.405-2.023c-0.41-0.405-2.509-0.726-5.281-0.985
											c-6.843-0.654-17.762-0.993-17.284-1.65c0.674-0.904,24.221-6.173,24.221-6.173s0.391-0.645,0.53-1.636
											C201.415,297.037,201.411,296.323,201.183,295.551z"/>
										<path style="fill:#B77158;" d="M199.147,308.065c-0.41-0.405-2.509-0.726-5.281-0.985c-1.112,1.677-1.84,3.861-2.976,5.34
											c-1.778,2.303-4.077,4.213-6.689,5.487c-4.284,2.084-9.195,2.495-13.958,2.378c-4.76-0.11-9.525-0.692-14.276-0.439
											c-2.562,0.135-5.092,0.522-7.599,1.051l1.276,6.976l7.535-2.349l4.51,2.038c3.415,1.025,36.346-5.017,36.58-7.247
											c0.067-0.602,0.076-1.264,0.059-1.907c-0.03-0.996-0.125-1.931-0.192-2.553c-0.057-0.46-0.106-0.739-0.106-0.739
											s0.522-1.133,0.941-2.514c0.271-0.812,0.497-1.714,0.582-2.515C199.651,309.221,199.556,308.47,199.147,308.065z"/>
										<g>
											<g>
												<path style="fill:#8E503D;" d="M198.975,312.605c-0.625,0.056-1.263,0.105-1.91,0.134
													c-3.781,0.185-7.219-0.092-9.685-0.428c-2.313-0.318-3.787-0.662-3.961-0.707c0.174-0.031,1.666-0.287,3.966-0.574
													c2.461-0.308,5.832-0.669,9.551-0.848c0.897-0.043,1.771-0.07,2.617-0.094
													C199.471,310.887,199.242,311.788,198.975,312.605z"/>
											</g>
											<g>
												<path style="fill:#8E503D;" d="M198.323,318.406c-6.011,0.411-10.892-0.297-11.2-0.344
													c0.299-0.101,5.006-1.607,11.016-2.204C198.206,316.479,198.298,317.415,198.323,318.406z"/>
											</g>
										</g>
									</g>
								</g>
							</g>
							<path style="fill:#FFFFFF;" d="M103.071,209.148c0,0-17.716,5.835-21.431,11.158c-3.715,5.322-23.884,98.209-12.738,114.918
								c11.146,16.71,83.591-1.49,83.591-1.49l-4.384-34.213l-38.532,3.251L103.071,209.148z"/>
							<path style="fill:#EFDAC5;" d="M97.726,217.888c-0.434-0.432-1.273,0.156-0.879,0.678c3.926,5.208,5.337,10.872,5.682,17.262
								c0.079,1.462,2.091,1.417,2.239,0C105.472,229.091,102.397,222.54,97.726,217.888z"/>
						</g>
						<path style="fill:#EFDAC5;" d="M103.068,251.001c0,0-2.472,48.518-4.417,51.772l45.577-1.038l1.965,30.694l-41.324,9.36
							l47.624-6.581l-4.125-38.813h-43.5L103.068,251.001z"/>
					</g>
					<g>
						<g>
							<g>
								<g>
									<g>
										<g>
											<path style="fill:#EA7C6F;" d="M315.18,426.371c-1.261,4.057-8.225,6.095-8.225,6.095s-6.366-11.544-10.041-17.945
												c-0.977-1.691-1.763-3.021-2.188-3.688c-2.052-3.168-4.082-24.411-4.082-24.411l18.753,0.716
												c2.506,3.939-0.088,16.167-0.088,16.167c0.706,1.658,1.183,7.481,1.354,9.836c0.04,0.617,0.063,0.995,0.063,0.995
												c0.054-0.112,0.109-0.212,0.173-0.302c1.023-1.626,2.906-0.87,2.906-0.87L315.18,426.371z"/>
											<path style="fill:#F3A080;" d="M324.188,273.579h-25.284l-0.011,0.659l-0.464,5.818c0,0-6.037,19.754-6.18,26.451
												l-1.517,75.466l-0.087,4.456c0,0,1.525,15.973,3.259,22.279c0.269,0.961,0.54,1.698,0.816,2.127
												c0.427,0.658,1.204,1.999,2.181,3.683c1.802,3.167,4.28,7.56,6.307,11.21c0.951,1.683,1.777,3.194,2.427,4.363
												c0.826,1.483,1.326,2.367,1.326,2.367s0.052,0.002,0.18-0.051c1.133-0.358,6.903-2.37,8.029-6.039l-1.355-13.388
												c0,0-1.886-0.758-2.909,0.866c-0.078,0.081-0.13,0.192-0.183,0.275c0,0,0.001-0.084-0.022-0.225
												c0.003-0.168-0.02-0.422-0.041-0.758c-0.022-0.337-0.067-0.759-0.086-1.236l-0.157-1.688
												c-0.246-2.615-0.613-5.767-1.111-6.903c0,0,2.602-12.231,0.093-16.176l-2.014-4.519c2.233-11.485,7.222-37.103,11-58.411
												c2.918-16.596,5.108-30.578,4.709-33.254C322.793,288.921,323.301,282.199,324.188,273.579z M307.958,417.712
												c0.713,0.274,1.482,0.298,2.177,0.094c-0.029,2.13,0.275,4.242,0.94,6.226c-0.774,0.341-1.491,0.292-2.265,0.632
												c-0.297-0.794-0.644-1.617-0.993-2.413c-0.422-0.966-0.896-1.934-1.396-2.874c-1.325-2.452-2.908-4.771-4.704-6.592
												c-0.376-4.33-1.164-8.643-2.337-12.829c1.023,1.994,2.306,3.828,3.823,5.388c1.339,1.386,0.483,3.996,0.84,5.998
												c0.358,1.974,0.97,4.011,2.31,5.37c0.152,0.144,0.304,0.289,0.482,0.407C307.167,417.38,307.549,417.587,307.958,417.712
												z"/>
											<path style="fill:#F8BF92;" d="M298.903,273.579l-0.011,0.659l-0.464,5.818c0,0-6.037,19.754-6.18,26.451l-1.517,75.466
												l-0.087,4.456c0,0,1.525,15.973,3.259,22.279c2.369-13.865,0.186-30.558,0.299-44.435
												c0.15-16.567,0.35-33.133,0.602-49.669c0.08-4.007,0.135-8.015,0.957-11.916c0.821-3.761,2.329-7.304,3.508-10.97
												c1.538-4.743,2.23-11.229,2.639-18.139H298.903z"/>
										</g>
									</g>
									<g>
										<path style="fill:#D97B71;" d="M303.377,283.297c0,0,0.094,0.245,0.29,0.69c0.095,0.227,0.221,0.497,0.405,0.786
											c0.18,0.292,0.372,0.647,0.648,0.977c0.262,0.347,0.563,0.721,0.932,1.068c0.351,0.378,0.778,0.703,1.231,1.053
											c0.927,0.65,2.046,1.221,3.289,1.549c1.247,0.31,2.475,0.341,3.561,0.207c0.543-0.095,1.053-0.179,1.515-0.349
											c0.467-0.132,0.883-0.323,1.253-0.508c0.376-0.163,0.687-0.39,0.961-0.565c0.277-0.171,0.496-0.353,0.668-0.511
											c0.349-0.305,0.528-0.48,0.528-0.48s-0.24,0.057-0.669,0.159c-0.209,0.058-0.464,0.121-0.768,0.16
											c-0.302,0.044-0.629,0.126-1.007,0.142c-0.371,0.038-0.771,0.077-1.204,0.069c-0.427,0.028-0.886-0.019-1.359-0.033
											c-0.95-0.085-1.972-0.242-3.03-0.502c-1.054-0.281-2.035-0.637-2.924-1.024c-0.432-0.217-0.863-0.399-1.237-0.632
											c-0.394-0.204-0.738-0.435-1.058-0.649c-0.334-0.198-0.597-0.432-0.852-0.618c-0.259-0.183-0.465-0.365-0.63-0.519
											C303.571,283.466,303.377,283.297,303.377,283.297z"/>
									</g>
								</g>
							</g>
							<path style="fill:#415F4B;" d="M323.417,212.6c0,0-15.618,4.279-18.652,10.348c-3.034,6.069-13.351,60.685-13.351,60.685
								l25.363,8.837L323.417,212.6z"/>
							<g>
								<g>
									<g>
										<g>
											<g>
												<g>
													<g>
														<path style="fill:#F3A080;" d="M417.884,494.85c0,0,18.805,36.213,19.905,50.817
															c0.577,7.601,5.154,92.996,5.154,92.996h-23.529c0,0-22.793-108.238-28.676-120.942
															c-2.651-5.724-8.148-31.052-13.389-57.156c13.759-1.369,27.416-3.419,40.815-5.915
															C418.049,476.557,417.884,494.85,417.884,494.85z"/>
														<path style="fill:#F3A080;" d="M357.539,462.035c-0.391,19.8-0.825,36.888-1.188,38.916
															c0,0,8.354,24.642,10.858,37.604c1.839,9.48-8.51,111.733-8.51,111.733h-23.983c0,0-7.316-130.03-10.485-139.178
															c-1.455-4.201-5.008-25.444-8.119-49.698C329.838,462.57,343.7,462.7,357.539,462.035z"/>
														<path style="fill:#EA7C6F;" d="M417.884,494.85c0,0,18.805,36.213,19.905,50.817
															c0.577,7.601,5.154,92.996,5.154,92.996h-3.841c-1.473-25.476-6.152-93.016-7.842-94.706
															c-2.036-2.036-23.033-52.935-23.033-52.935s0.732-15.159,1.392-34.849c2.859-0.486,5.708-0.995,8.545-1.524
															C418.049,476.557,417.884,494.85,417.884,494.85z"/>
														<path style="fill:#EA7C6F;" d="M356.351,500.951c0,0,8.354,24.642,10.858,37.604
															c1.839,9.48-8.51,111.733-8.51,111.733h-5.341l8.076-104.974l-12.087-47.051l0.278-35.936
															c2.638-0.067,5.277-0.166,7.914-0.292C357.148,481.835,356.714,498.922,356.351,500.951z"/>
														<path style="fill:#F8BF92;" d="M404.268,515.206c-0.165,0.418-0.376,0.857-0.773,1.068
															c-0.399,0.211-0.885,0.139-1.32,0.019c-2.202-0.607-3.98-2.237-5.405-4.022c-3.088-3.87-9.639-17.183-0.421-17.387
															C405.405,494.684,406.628,509.22,404.268,515.206z"/>
														<path style="fill:#F8BF92;" d="M342.596,518.953c-0.703,1.978-1.828,4.049-3.809,4.743
															c-1.636,0.574-3.505,0.03-4.89-1.015c-1.384-1.044-2.366-2.527-3.246-4.021c-1.616-2.741-3.006-5.68-3.463-8.828
															c-0.927-6.391,3.977-14.76,11.298-11.578C345.903,501.48,344.759,512.867,342.596,518.953z"/>
													</g>
												</g>
											</g>
										</g>
									</g>
								</g>
								<g>
									<polygon style="fill:#415F4B;" points="330.915,650.288 329.179,620.806 365.196,620.806 361.942,653.778 									"/>
									<g>
										<path style="fill:#352012;" d="M285.067,679.171c0.236-1.452,0.925-3.144,2.775-3.968
											c5.4-2.405,25.211-9.853,30.584-14.112c4.172-3.307,7.856-10.512,9.295-13.568l36.812,1.93
											c2.106,9.584,3.449,28.042,3.713,31.905L285.067,679.171z"/>
										<polygon style="fill:#FFFFFF;" points="284.819,687.539 367.997,689.726 368.246,681.358 285.067,679.171 										"/>
										<g>
											<path style="fill:#FFFFFF;" d="M325.362,663.619c0.055,0.098,0.109,0.196,0.16,0.295
												c0.385,0.743,0.614,1.877-0.364,2.293c-0.499,0.212-1.069,0.13-1.598,0.013c-1.819-0.404-3.482-1.236-5.067-2.194
												c-1.704-1.03-3.52-2.145-4.601-3.877c-1.118-1.791,0.535-3.393,2.501-2.931
												C319.795,658.018,323.601,660.51,325.362,663.619z"/>
											<path style="fill:#FFFFFF;" d="M318.981,667.937c0.055,0.098,0.109,0.196,0.16,0.295
												c0.385,0.743,0.614,1.877-0.364,2.293c-0.499,0.212-1.069,0.131-1.598,0.013c-1.819-0.404-3.482-1.236-5.067-2.194
												c-1.704-1.03-3.52-2.145-4.601-3.877c-1.118-1.791,0.534-3.393,2.501-2.931
												C313.414,662.336,317.22,664.828,318.981,667.937z"/>
											<path style="fill:#FFFFFF;" d="M311.194,670.69c0.055,0.098,0.109,0.196,0.16,0.295c0.385,0.743,0.614,1.877-0.364,2.293
												c-0.499,0.212-1.069,0.13-1.598,0.013c-1.819-0.405-3.482-1.236-5.067-2.194c-1.704-1.03-3.52-2.144-4.601-3.877
												c-1.118-1.791,0.535-3.393,2.501-2.931C305.627,665.089,309.433,667.581,311.194,670.69z"/>
										</g>
									</g>
								</g>
								<g>
									<path style="fill:#415F4B;" d="M416.619,641.467l-7.811-24.735l34.135-6.292c0,0,2.316,25.603,1.231,29.291
										C443.09,643.419,416.619,641.467,416.619,641.467z"/>
									<g>
										<g>
											<path style="fill:#352012;" d="M406.767,689.284c0,3.354,25.829,10.062,30.766,9.637c4.92-0.409,22.968-13.4,22.968-13.4
												s-0.715-2.656-1.839-6.776c-3.15-11.493-9.62-34.308-13.399-42.549l-29.06,3.955c-1.545,4.839-6.627,29.502-8.091,38.799
												C407.329,683.955,406.767,688.109,406.767,689.284z"/>
											<path style="fill:#FFFFFF;" d="M460.498,685.524c0,0-18.051,12.984-22.974,13.404
												c-4.922,0.413-30.762-6.286-30.762-9.638c0-1.174,0.558-5.332,1.346-10.343c8.409,3.367,26.418,10.03,32.358,7.851
												c4.03-1.481,11.7-4.997,18.198-8.058C459.794,682.862,460.498,685.524,460.498,685.524z"/>
										</g>
										<path style="fill:#FFFFFF;" d="M437.471,660.067c0.102,0.044,0.203,0.09,0.302,0.137c0.746,0.357,1.597,1.121,1.062,2.054
											c-0.273,0.476-0.777,0.762-1.268,0.992c-1.691,0.795-3.509,1.154-5.34,1.364c-1.968,0.225-4.075,0.452-5.96-0.266
											c-1.949-0.743-1.574-3.037,0.268-3.878C429.723,659.017,434.231,658.667,437.471,660.067z"/>
										<path style="fill:#FFFFFF;" d="M437.471,667.326c0.102,0.044,0.203,0.09,0.302,0.137c0.746,0.357,1.597,1.121,1.062,2.054
											c-0.273,0.476-0.777,0.762-1.268,0.993c-1.691,0.795-3.509,1.154-5.34,1.363c-1.968,0.226-4.075,0.452-5.96-0.266
											c-1.949-0.742-1.574-3.037,0.268-3.878C429.723,666.276,434.231,665.926,437.471,667.326z"/>
										<path style="fill:#FFFFFF;" d="M438.166,673.972c0.102,0.044,0.203,0.09,0.302,0.137c0.746,0.357,1.597,1.121,1.062,2.054
											c-0.273,0.476-0.777,0.762-1.268,0.993c-1.691,0.795-3.509,1.154-5.34,1.363c-1.968,0.225-4.075,0.452-5.96-0.266
											c-1.949-0.742-1.574-3.037,0.268-3.878C430.418,672.922,434.927,672.572,438.166,673.972z"/>
									</g>
								</g>
							</g>
							<g>
								<path style="fill:#48311F;" d="M312.044,481.479c9.109,1.413,50.977,1.004,50.977,1.004l2.741-60.647l6.674,58.128
									c5.993,1.328,33.593-1.243,47.98-2.707c5.261-0.545,8.751-0.937,8.751-0.937l-4.444-55.523c0,0,0.868-24.484,0.868-33.695
									c-2.997-8.786-12.191-30.239-12.191-30.239l-18.167,3.593l-81.964,16.226c0,0-2.435,15.988-2.843,21.657
									C310.018,403.992,312.044,481.479,312.044,481.479z"/>
								<polygon style="fill:#352012;" points="344.223,401.064 358.389,411.45 363.02,482.483 365.762,421.836 364.246,404.095 
																	"/>
								<path style="fill:#352012;" d="M415.019,394.083c2.026,9.313,0,33.984,0,33.984l5.397,49.189
									c5.261-0.545,8.751-0.937,8.751-0.937l-4.444-55.523c0,0,0.868-24.484,0.868-33.695
									c-2.997-8.786-12.191-30.239-12.191-30.239l-18.167,3.593C402.743,371.37,413.708,388.039,415.019,394.083z"/>
							</g>
							<g>
								<path style="fill:#5B322F;" d="M313.594,192.806c0.579,0.17,1.141,0.357,1.72,0.511c25.505,7.526,53.19,8.156,79.104,2.026
									c6.385-1.498,12.667-3.422,18.78-5.738c-0.017-17.026-1.754-34.376-8.973-49.989c-7.832-16.941-24.041-32.793-44.405-33.797
									c-11.646-0.579-26.22,3.831-31.992,14.166c-6.197,11.118-7.474,23.769-8.19,36.113
									C318.907,168.527,318.498,181.263,313.594,192.806z"/>
								<g>
									<g>
										<g>
											<path style="fill:#F3A080;" d="M388.176,212.408l-12.642-7.686l-28.217-0.547l-12.833,6.927
												c0,0,5.925,17.005,12.833,18.522s21.042,1.821,21.042,1.821S384.631,228.865,388.176,212.408z"/>
											<path style="fill:#F3A080;" d="M375.534,204.722c0,0-18.785,3.798-21.581,2.597c-2.799-1.185-6.636-3.144-6.636-3.144
												c0.63-0.7,4.97-7.268,4.872-9.498c-0.227-5.141-1.744-12.368-1.744-12.368l17.461-5.055c0,0,0.465,4.947,1.197,10.194
												C369.841,192.764,374.486,203.862,375.534,204.722z"/>
											<path style="fill:#EA7C6F;" d="M369.1,187.442c-4.893,3.286-10.898,7.167-12.825,7.717c-1.573,0.445-3,0.06-4.08-0.482
												c-0.236-5.145-1.754-12.363-1.754-12.363l17.461-5.055C367.902,177.258,368.374,182.21,369.1,187.442z"/>
											<g>
												<path style="fill:#F8BF92;" d="M379.767,129.597c-8.879-11.247-24.5-15.27-37.252-8.732
													c-2.932,1.503-5.302,3.257-6.428,5.263c-4.505,8.021-11.851,37.997-6.303,52.858
													c5.547,14.861,15.521,13.36,19.089,12.511c3.568-0.849,20.439-6.915,24.528-12.114
													c4.09-5.199,13.669-32.607,12.205-39.946C385.118,136.986,382.731,133.351,379.767,129.597z"/>
												<path style="fill:#F3A080;" d="M381.002,127.472c-8.879-11.247-24.5-15.27-37.252-8.732
													c-2.932,1.503-5.302,3.257-6.428,5.263c-4.505,8.022-11.851,37.997-6.303,52.858
													c5.548,14.861,15.521,13.36,19.09,12.511c3.568-0.849,20.439-6.915,24.528-12.114
													c4.089-5.199,13.669-32.607,12.205-39.947C386.354,134.86,383.966,131.226,381.002,127.472z"/>
												<path style="fill:#EA7C6F;" d="M346.628,164.728c0.763-0.082,1.555-0.292,2.278-0.034
													c-1.154,1.508-2.922,2.532-4.805,2.783c-0.145,0.019-0.295,0.034-0.436-0.006c-0.172-0.049-0.311-0.174-0.44-0.299
													c-0.813-0.791-1.467-1.745-1.912-2.788c-0.09-0.211-0.173-0.433-0.171-0.663c0.008-0.761,0.463-0.481,0.849-0.207
													c0.448,0.317,0.937,0.578,1.447,0.777C344.447,164.687,345.55,164.845,346.628,164.728z"/>
												<path style="fill:#DD5B67;" d="M344.049,167.028c-0.342-0.5-0.752-0.954-1.107-1.447
													c-0.438-0.609-0.828-1.251-1.14-1.934c2.735-1.033,3.313-3.479,3.883-6.274c0.258-1.261,0.213-2.578-0.124-3.82
													c-0.177-0.652-0.434-1.282-0.763-1.872c-0.168-0.3-0.353-0.59-0.557-0.867c-0.198-0.271-0.427-0.451-0.698-0.649
													c0.103,0.2,0.154,0.416,0.242,0.617c0.231,0.526,0.485,1.025,0.66,1.576c0.175,0.55,0.301,1.116,0.38,1.688
													c0.158,1.144,0.128,2.317-0.11,3.449c-0.233,1.109-0.669,2.18-1.325,3.107c-0.749,1.058-1.85,2.019-3.085,2.44
													c-0.011,0.004,1.138,2.255,1.257,2.445c0.309,0.491,0.664,0.953,1.066,1.372c0.394,0.411,0.844,0.894,1.421,1.013
													c0.181,0.037,0.373,0.042,0.545-0.026c-0.082-0.089-0.156-0.186-0.219-0.288c-0.028-0.045-0.054-0.091-0.08-0.137
													C344.219,167.287,344.136,167.156,344.049,167.028z"/>
												<path style="fill:#F3A080;" d="M375.758,164.413c0.903-0.376,5.659-5.967,8.591-2.255
													c2.932,3.713,3.454,9.616,0.331,12.744c-2.851,2.855-6.769,5.89-11.277,4.48L375.758,164.413z"/>
												<path style="fill:#EA7C6F;" d="M384.009,166.628c0.139,0.792-0.032,1.596-0.322,2.351
													c-1.233,3.208-4.464,5.51-7.552,7.642c0.987-1.531,1.428-3.302,1.357-5.059c-0.024-0.611-0.109-1.223-0.076-1.833
													C377.549,167.273,383.19,161.946,384.009,166.628z"/>
												<g>
													<path style="fill:#B54B57;" d="M374.599,177.458c0,0,0.06-0.031,0.173-0.09c0.111-0.062,0.289-0.142,0.493-0.271
														c0.412-0.255,0.985-0.669,1.54-1.302c0.553-0.631,1.072-1.487,1.358-2.523c0.265-1.032,0.301-2.254-0.153-3.461
														c-0.047-0.153-0.116-0.298-0.187-0.443l-0.052-0.108c-0.013-0.027-0.005-0.01-0.007-0.013l0,0.004l-0.003-0.002
														l-0.001,0c0,0-0.004,0.005,0.009-0.017l0.054-0.091l0.111-0.18c0.076-0.118,0.15-0.237,0.228-0.351
														c0.308-0.462,0.637-0.893,0.972-1.292c0.335-0.399,0.68-0.764,1.018-1.095c0.342-0.329,0.668-0.638,0.989-0.862
														c0.32-0.226,0.665-0.363,0.98-0.387c0.316-0.018,0.608,0.077,0.801,0.194c0.196,0.12,0.299,0.265,0.338,0.371
														c0.043,0.106,0.036,0.168,0.042,0.168c-0.006,0,0.019-0.059,0.002-0.175c-0.013-0.116-0.084-0.293-0.275-0.465
														c-0.19-0.167-0.495-0.332-0.909-0.37c-0.415-0.03-0.871,0.089-1.285,0.303c-0.419,0.216-0.799,0.494-1.201,0.801
														c-0.399,0.31-0.807,0.661-1.202,1.057c-0.394,0.396-0.779,0.834-1.133,1.313c-0.09,0.119-0.175,0.242-0.26,0.367
														l-0.126,0.189l-0.167,0.268l-0.116,0.188c0.023,0.066,0.059,0.133,0.089,0.201l0.132,0.287
														c0.06,0.126,0.12,0.252,0.16,0.385c0.394,1.047,0.429,2.119,0.282,3.07c-0.167,0.951-0.523,1.782-0.935,2.433
														c-0.413,0.652-0.868,1.127-1.206,1.438c-0.167,0.157-0.318,0.263-0.41,0.344
														C374.65,177.416,374.599,177.458,374.599,177.458z"/>
												</g>
												<path style="fill:#734641;" d="M333.004,142.269c0,0,3.58-4.185,6.302-4.488c2.721-0.303,4.035,1.976,3.086,2.681
													C341.442,141.168,333.004,142.269,333.004,142.269z"/>
												<path style="fill:#734641;" d="M368.633,147.47c0,0-6.154-5.673-10.364-6.576c-4.21-0.903-5.85,1.532-4.284,2.558
													C355.552,144.477,368.633,147.47,368.633,147.47z"/>
												<g>
													<path style="fill:#EA7C6F;" d="M358.836,165.997c0.103,1.303,2.977,2.14,6.42,1.868
														c3.443-0.272,6.15-1.549,6.047-2.853s-2.977-2.14-6.42-1.868C361.441,163.417,358.734,164.694,358.836,165.997z"/>
													<path style="fill:#DD5B67;" d="M341.822,174.642c0,0,4.634-3.564,15.208-0.713L341.822,174.642z"/>
													<path style="fill:#EA7C6F;" d="M325.866,157.605c-0.469,0.872,1.282,2.725,3.91,4.137
														c2.628,1.413,5.139,1.851,5.608,0.978c0.469-0.872-1.282-2.725-3.91-4.137
														C328.845,157.171,326.334,156.733,325.866,157.605z"/>
												</g>
												<g>
													<path style="fill:#1D1E1E;" d="M364.333,150.479c-0.669,0.973-2.264,1.481-3.354,1.723
														c-0.364-0.693-0.894-1.179-1.556-1.336c-1.688-0.4-3.578,1.473-4.22,4.184c-0.643,2.711,0.205,5.233,1.893,5.633
														c1.688,0.4,3.578-1.473,4.22-4.184c0.199-0.84,0.254-1.661,0.187-2.406
														C363.06,153.266,364.333,150.479,364.333,150.479z"/>
													<g>
														<path style="fill:#1D1E1E;" d="M331.924,146.63c0.161,0.937,1.157,1.846,1.871,2.39
															c0.5-0.384,1.051-0.561,1.588-0.452c1.369,0.276,2.12,2.283,1.676,4.481c-0.443,2.199-1.913,3.757-3.282,3.481
															c-1.369-0.276-2.12-2.283-1.676-4.481c0.137-0.681,0.373-1.3,0.674-1.822
															C331.916,149.097,331.924,146.63,331.924,146.63z"/>
														<path style="fill:#FFFFFF;" d="M334.468,152.82c0,0-1.484,0.19-2.676-0.572c-1.193-0.763-1.643-2.189-1.643-2.189
															s1.484-0.19,2.676,0.572C334.018,151.393,334.468,152.82,334.468,152.82z"/>
													</g>
													<path style="fill:#FFFFFF;" d="M358.245,156.138c0,0,1.575,0.986,3.317,0.746c1.742-0.24,2.991-1.615,2.991-1.615
														s-1.575-0.986-3.317-0.745C359.495,154.763,358.245,156.138,358.245,156.138z"/>
												</g>
											</g>
										</g>
									</g>
								</g>
								<g>
									<path style="fill:#5B322F;" d="M329.62,135.22c0.017,0.153,0.017,0.29,0.051,0.443c0.068,0.8,0.204,1.6,0.392,2.401
										c0.119,0.596,0.289,1.192,0.477,1.77c2.894-4.12,7.049-7.338,11.731-9.16c0.34,1.992,1.124,3.899,2.264,5.551
										c0.953-3.014,2.588-5.806,4.733-8.122c0.528,3.303,2.571,6.334,5.431,8.087c0.409-3.201,1.669-6.283,3.61-8.836
										c1.72,4.597,5.193,8.53,9.552,10.794c0-2.98,0-5.976-0.017-8.956c1.226,6.725,5.653,12.804,11.68,16.022
										c0,0-1.175,15.324-0.528,17.945c0,0,2.622-1.958,5.057-0.068c2.435,1.89,2.724,6.419,2.724,6.419
										c1.703-2.247,3.371-4.716,4.887-7.321c0.562-0.954,1.107-1.941,1.617-2.929c1.481-2.827,2.741-5.755,3.661-8.718
										c0.511-1.652,0.936-3.303,1.209-4.938c0.153-0.868,0.255-1.737,0.341-2.622c-0.528-1.567-1.124-3.099-1.805-4.597
										c-0.443-0.988-0.936-1.975-1.447-2.929c-2.656-4.92-6.402-9.688-10.863-13.706c-5.517-5.006-12.106-8.871-19.001-10.505
										c-2.775-0.664-5.755-0.903-8.82-0.784c-6.487,0.256-13.332,2.128-19.291,5.159c-3.746,3.797-6.402,8.718-7.321,13.86
										C329.569,131.372,329.467,133.296,329.62,135.22z"/>
								</g>
								<path style="fill:#734641;" d="M313.594,192.806c0.579,0.17,1.141,0.357,1.72,0.511c4.257-8.888,6.623-18.661,6.862-28.502
									c0.187-7.849-0.919-15.902,1.328-23.411c3.201-10.693,12.497-18.235,21.3-25.096c0.034,3.167,0.085,6.334,0.119,9.5
									c1.6-3.541,4.206-6.64,7.423-8.837c-0.392,3.065,0.051,6.249,1.294,9.075c2.213-3.32,4.427-6.64,6.657-9.96
									c0.392,3.627,2.333,7.066,5.244,9.279c0.153-2.861,0.834-5.704,1.975-8.343c8.428,8.19,17.333,16.005,24.331,25.454
									c6.981,9.449,12.004,20.891,11.323,32.622c-0.426,7.457-3.593,14.932-8.751,20.244c6.385-1.498,12.667-3.422,18.78-5.738
									c0-6.487-0.255-13.008-0.971-19.478c-1.158-10.505-3.524-20.84-8.002-30.511c-7.832-16.941-24.041-32.793-44.405-33.797
									c-11.646-0.579-26.22,3.831-31.992,14.166c-1.328,2.384-2.435,4.836-3.337,7.338c-3.388,9.177-4.291,19.069-4.852,28.774
									C318.907,168.527,318.498,181.263,313.594,192.806z"/>
								<path style="fill:#965C51;" d="M347.238,110.467c-0.051,1.89-0.085,3.78-0.136,5.67c2.554-1.822,5.108-3.66,7.679-5.482
									c0.323,1.992,0.647,3.984,0.987,5.976c1.328-2.367,3.235-4.393,5.5-5.891c0.919,1.413,1.839,2.809,2.758,4.223
									c0.596-1.192,1.192-2.384,1.788-3.576c14.608,5.857,26.186,17.742,34.24,31.26c5.125,8.632,8.973,17.929,12.174,27.48
									c-1.158-10.505-3.524-20.84-8.002-30.511c-7.832-16.941-24.041-32.793-44.405-33.797
									c-11.646-0.579-26.22,3.831-31.992,14.166c-1.328,2.384-2.435,4.836-3.337,7.338
									C330.416,119.849,338.334,113.924,347.238,110.467z"/>
							</g>
							<path style="fill:#415F4B;" d="M302.645,273.009c2.656,5.772,9.279,13.911,14.132,19.461
								c-8.441,34.481-17.395,69.379-6.555,88.196c57.208,13.417,111.096-10.846,111.096-10.846l-12.514-29.132
								c0,0-1.005-26.442-2.111-55.097c-0.119-2.741-0.221-5.516-0.323-8.275c-1.226-31.141-2.503-62.163-2.69-62.555
								c-0.102-0.187-0.681-0.46-1.6-0.766c-3.082-1.055-9.96-2.639-14.472-3.626c-2.52-0.545-4.291-0.92-4.291-0.92
								s-10.539,20.176-24.211,18.661c-13.366-1.481-19.529-18.814-20.023-19.495l-4.001,1.021l-11.663,2.963
								C323.417,212.6,298.236,263.458,302.645,273.009z"/>
							<path style="fill:#2D4935;" d="M322.514,223.468c0,0-18.256,39.105-18.153,46.007c0.103,6.903,12.417,22.995,12.417,22.995
								s-18.688-16.521-17.272-24.613C300.922,259.766,322.514,223.468,322.514,223.468z"/>
							<path style="fill:#415F4B;" d="M398.486,287.686l8.207-2.094l37.849-9.637c0,0-1.175-3.337-2.98-8.343
								c-4.904-13.604-14.506-39.518-18.048-44.251c-4.852-6.487-21.436-9.381-21.436-9.381v0.017l-2.35,48.167L398.486,287.686z"/>
							<path style="fill:#2D4935;" d="M310.222,380.667c57.208,13.417,111.096-10.846,111.096-10.846l-12.514-29.132
								c0,0-1.005-26.442-2.111-55.097l37.849-9.637c0,0-1.175-3.337-2.98-8.343l-35.193,9.705l-1.669,0.46l-4.972-15.613
								l-7.713-24.245l3.218,99.723l7.645,21.3C402.879,358.941,365.438,387.886,310.222,380.667z"/>
							<g>
								<path style="fill:#F3A080;" d="M359.292,326.915c0,0,0.306,0.102,0.885,0.289l0.204,0.085v-0.017
									c6.674,2.23,69.893,31.482,83.514,12.889c6.981-9.518-2.179-47.503-6.163-62.469l-23.36,5.942l-6.504,1.669l11.101,30.596
									l-6.538-0.919l-46.243-6.47l-0.8-0.102c-0.034,0-0.085-0.017-0.136-0.017c-0.051-0.017-0.085-0.017-0.119-0.017
									c-0.681-0.068-1.294-0.17-1.668-0.221l-0.187-0.017c0,0-0.017,0-0.034-0.017h-0.017l-0.017-0.017
									c-0.051,0-0.068-0.017-0.068-0.017c-0.017,0-0.017,0-0.017,0l-0.562,2.673l-0.307,1.6v0.017l-1.515,7.423l-0.324,1.549
									l-0.97,4.819l-0.136,0.681v0.017L359.292,326.915z"/>
								<path style="fill:#F8BF92;" d="M362.254,312.357v0.017c0.017,0,0.017,0,0.034,0l1.703,0.306l0.306,0.051l57.498,10.012
									l-7.423-39.109l-6.504,1.669l-1.175,0.289l-1.124,0.289l6.862,29.098l-46.243-6.47l-0.8-0.102
									c-0.034,0-0.085-0.017-0.136-0.017c-0.051-0.017-0.085-0.017-0.119-0.017c-0.681-0.068-1.294-0.17-1.668-0.221l-0.187-0.017
									c0,0-0.017,0-0.034-0.017h-0.017l-0.017-0.017c-0.051,0-0.068-0.017-0.068-0.017c-0.017,0-0.017,0-0.017,0L362.254,312.357z
									"/>
								<g>
									<g>
										<path style="fill:#F3A080;" d="M309.678,290.256c0.785-2.103,36.433,3.399,36.433,3.399
											c-3.705-4.364-5.869-10.035-6.005-15.768c0-0.053,0-0.107,0-0.16c0.011-0.519,0.113-1.08,0.547-1.325
											c0.21-0.117,0.458-0.135,0.696-0.132c2.042,0.035,3.872,1.349,5.165,2.936c1.286,1.584,2.156,3.466,3.254,5.178
											c2.096,3.303,5.314,5.621,8.494,7.894c5.37,3.856,4.858,15.807,4.858,15.807s0.906,0.313,2.138,0.76l-5.957,18.018
											l-6.503-2.548l-4.791,1.77c-3.591,0.807-37.051-7.809-37.13-10.122c-0.025-0.625,0.014-1.307,0.078-1.967
											c0.103-1.023,0.27-1.978,0.383-2.614c0.092-0.469,0.163-0.753,0.163-0.753s-0.455-1.204-0.786-2.657
											c-0.22-0.856-0.387-1.8-0.416-2.632c-0.039-0.899,0.113-1.666,0.564-2.053c0.451-0.387,2.635-0.565,5.509-0.63
											c7.092-0.176,18.358,0.27,17.914-0.44c-0.629-0.98-24.486-8.118-24.486-8.118s-0.355-0.692-0.427-1.722
											C309.331,291.769,309.387,291.034,309.678,290.256z"/>
										<g>
											<g>
												<path style="fill:#B54B57;" d="M310.711,307.973c0.639,0.103,1.293,0.2,1.956,0.277
													c3.879,0.465,7.438,0.43,10.001,0.264c2.404-0.159,3.947-0.406,4.129-0.44c-0.177-0.045-1.694-0.416-4.041-0.88
													c-2.51-0.496-5.955-1.113-9.771-1.568c-0.921-0.109-1.818-0.201-2.687-0.287
													C310.324,306.168,310.495,307.113,310.711,307.973z"/>
											</g>
											<g>
												<path style="fill:#B54B57;" d="M310.959,313.992c6.158,0.861,11.234,0.486,11.555,0.461
													c-0.301-0.126-5.036-2.019-11.18-3.071C311.22,312.017,311.057,312.974,310.959,313.992z"/>
											</g>
										</g>
										<path style="fill:#F8BF92;" d="M364.122,313.091c-0.097-0.036-0.217-0.066-0.314-0.102
											c-0.523-0.183-1.061-0.374-1.565-0.625c-0.399-0.229-0.766-0.479-1.082-0.818c-0.841-0.895-1.056-2.197-1.198-3.417
											c-0.496-3.956-0.669-8.101-2.578-11.613c-2.254-4.142-6.567-6.717-9.552-10.376c-2.165-2.657-3.728-5.951-6.62-7.789
											c-0.345-0.218-0.723-0.415-1.107-0.636c0.014-0.502,0.108-1.077,0.542-1.319c0.22-0.109,0.464-0.126,0.701-0.127
											c2.043,0.035,3.881,1.346,5.162,2.945c1.289,1.585,2.156,3.458,3.255,5.169c2.104,3.31,5.311,5.623,8.482,7.896
											c5.383,3.858,4.883,15.804,4.883,15.804s0.92,0.175,1.996,0.283c0.076,0.004,0.167,0.017,0.258,0.03l0.802,0.107
											L364.122,313.091z"/>
									</g>
								</g>
							</g>
						</g>
					</g>
				</g>
			</g>
		</g>
	</g>
	<g>
		<g>
			<path style="fill:#48311F;" d="M284.011,165.621l20.345,4.898l-10.079-13.898c0,0,3.171-57.453-0.917-57.34
				c-4.087,0.113-40.018-7.194-40.018-7.194l-43.184,43.146c0,0,16.873,44.311,18.492,43.928c1.619-0.383,37.388,4.434,37.388,4.434
				L284.011,165.621z"/>
			<g>
				<path style="fill:#C86B2A;" d="M259.047,120.177c-3.649,1.126-6.611,4.25-7.542,7.954c-0.474,1.886-0.474,3.945-1.473,5.614
					c-1.565,2.618-4.965,3.364-7.993,3.727c-3.028,0.364-6.39,0.75-8.389,3.054c-1.949,2.245-1.916,5.6-1.234,8.493
					c0.846,3.588,2.683,7.144,5.845,9.04c2.122,1.273,4.637,1.687,7.091,2.007c5.426,0.707,11.144,1.034,16.177-1.114
					c3.847-1.642,7.02-4.654,9.259-8.187c2.239-3.533,3.59-7.572,4.398-11.676c0.577-2.934,0.884-5.969,0.348-8.911
					c-0.58-3.181-2.364-6.945-5.447-8.387C266.723,120.218,262.698,119.051,259.047,120.177z"/>
				<g>
					
						<rect x="249.849" y="111.673" transform="matrix(0.4802 -0.8772 0.8772 0.4802 10.9584 297.0127)" style="fill:#FFF7E9;" width="12.446" height="55.175"/>
					
						<rect x="250.333" y="111.673" transform="matrix(0.851 0.5251 -0.5251 0.851 111.2703 -113.7193)" style="fill:#FFF7E9;" width="11.478" height="55.176"/>
				</g>
			</g>
		</g>
	</g>
	<g>
		<g>
			<polygon style="fill:#C86B2A;" points="166.607,100.073 164.229,75.373 179.166,77.942 			"/>
			<polygon style="fill:#C86B2A;" points="181.87,105.023 201.438,104.039 198.873,115.729 			"/>
			<polygon style="fill:#C86B2A;" points="176.708,102.062 193.726,69.84 209.979,85.048 			"/>
		</g>
		<g>
			<g>
				<g>
					<polygon style="fill:#48311F;" points="287.919,350.423 267.741,341.572 268.744,353.31 					"/>
				</g>
				<g>
					<polygon style="fill:#48311F;" points="283.915,357.335 250.03,359.906 255,375.592 					"/>
				</g>
				<g>
					<polygon style="fill:#48311F;" points="286.033,362.703 267.164,379.668 281.715,383.625 					"/>
				</g>
			</g>
		</g>
	</g>
</g>
</svg>
